<?xml version="1.0" standalone="no"?>
<!DOCTYPE svg PUBLIC "-//W3C//DTD SVG 20010904//EN"
 "http://www.w3.org/TR/2001/REC-SVG-20010904/DTD/svg10.dtd">
<svg version="1.0" xmlns="http://www.w3.org/2000/svg"
 width="700.000000pt" height="700.000000pt" viewBox="0 0 700.000000 700.000000"
 preserveAspectRatio="xMidYMid meet">
<metadata>
Created by potrace 1.11, written by Peter Selinger 2001-2013
</metadata>
<g transform="translate(0.000000,700.000000) scale(0.100000,-0.100000)"
fill="#000000" stroke="none">
<path d="M1422 5911 c-106 -106 -192 -194 -192 -195 0 -2 36 -41 81 -87 177
-183 315 -337 500 -559 145 -173 375 -502 511 -731 249 -416 466 -929 583
-1379 27 -104 44 -143 46 -105 1 25 3 38 19 95 7 25 14 56 17 70 12 66 110
404 164 564 l61 179 -28 66 c-15 36 -40 94 -56 128 -15 34 -28 64 -28 67 0 10
-185 377 -220 436 -17 30 -48 84 -68 120 -54 98 -202 327 -321 494 -201 283
-471 605 -754 900 l-123 129 -192 -192z"/>
<path d="M5118 5938 c-812 -850 -1321 -1698 -1618 -2688 -42 -139 -92 -325
-105 -390 -2 -8 -8 -33 -14 -55 -6 -22 -13 -58 -16 -80 -4 -22 -10 -56 -15
-75 -5 -19 -12 -51 -15 -70 -3 -19 -14 -82 -25 -140 -10 -58 -22 -127 -25
-155 -4 -27 -8 -61 -11 -74 -2 -13 -6 -45 -10 -70 -4 -25 -8 -55 -10 -66 -2
-10 -6 -51 -10 -90 -3 -38 -8 -77 -9 -86 -2 -9 -6 -52 -10 -95 -3 -43 -8 -86
-10 -94 -2 -8 -7 -67 -10 -130 -4 -63 -8 -133 -10 -155 -4 -50 -17 -386 -19
-480 l-1 -70 273 0 272 0 1 45 c2 143 16 471 24 555 2 22 6 87 10 145 3 58 8
112 10 120 2 8 6 47 10 85 12 135 25 251 40 340 8 50 17 108 20 130 9 64 14
92 41 225 13 69 26 134 28 145 16 83 84 340 126 478 123 406 296 801 504 1152
39 66 73 125 76 130 24 48 263 391 341 489 5 6 30 38 57 71 128 159 187 231
201 246 9 9 45 49 81 90 66 75 178 195 322 345 l48 49 -193 193 -194 193 -155
-163z"/>
<path d="M997 3972 c-53 -56 -70 -74 -157 -168 -24 -27 -71 -77 -103 -111
l-59 -61 169 -169 c189 -188 236 -239 344 -368 211 -253 337 -456 483 -778 28
-63 131 -366 140 -413 3 -16 17 -77 31 -137 14 -59 27 -120 30 -135 2 -15 15
-99 29 -187 13 -88 28 -189 31 -225 4 -36 8 -72 10 -80 1 -8 6 -60 11 -115 4
-55 8 -103 10 -107 1 -5 2 -16 3 -26 1 -16 20 -17 271 -17 173 0 270 4 271 10
2 13 2 6 -6 110 -6 93 -12 154 -20 215 -3 19 -7 55 -10 80 -6 52 -16 127 -21
155 -2 10 -6 37 -9 60 -3 22 -13 78 -21 125 -9 47 -18 96 -20 110 -24 130
-115 465 -160 585 -14 39 -29 81 -34 95 -13 41 -96 233 -136 312 -200 399
-521 818 -913 1192 -29 28 -66 63 -81 78 l-28 28 -55 -58z"/>
<path d="M5655 3848 c-161 -163 -288 -300 -337 -365 -12 -15 -25 -30 -28 -33
-4 -3 -34 -41 -68 -85 -35 -44 -66 -84 -70 -90 -90 -115 -261 -394 -336 -550
-32 -66 -62 -128 -67 -137 -21 -40 -93 -231 -129 -341 -68 -208 -153 -570
-174 -742 -4 -27 -11 -75 -16 -105 -5 -30 -12 -84 -15 -120 -3 -36 -8 -76 -10
-90 -6 -31 -12 -88 -20 -205 -4 -49 -9 -93 -11 -96 -8 -14 27 -15 285 -15
l264 1 2 25 c2 14 6 66 10 115 3 50 8 99 10 110 3 11 7 49 10 85 3 36 7 76 9
90 3 14 7 48 11 75 3 28 10 75 15 105 5 30 12 73 16 95 3 22 7 42 9 45 2 3 6
26 10 50 10 68 79 333 115 440 78 232 186 456 319 660 50 77 190 269 216 296
5 6 28 33 50 59 77 94 141 162 313 334 l174 173 -48 51 c-27 28 -53 56 -59 62
-10 12 -102 111 -203 218 -29 31 -59 57 -65 57 -6 0 -88 -78 -182 -172z"/>
</g>
</svg>
